# xmcd
#
# Track frame offsets:
#	150
#	12119
#	29442
#	44463
#	66279
#	86038
#	99548
#	119859
#	133617
#	146995
#	158795
#	176600
#	188821
#	212277
#
# Disc length: 3015 seconds
#
# Revision: 0
# Processed by: cddbd v1.5.2PL0 Copyright (c) Steve Scherf et al.
# Submitted via: audiograbber 1.83.01
#
DISCID=ca0bc50e
DTITLE=Mike Mitchell - Thirteen Hours
DYEAR=2007
DGENRE=Bluegrass
TTITLE0=Whitlock Run
TTITLE1=Young Love On The Mountian
TTITLE2=Lovers Waltz
TTITLE3=Jerusalem Ridge
TTITLE4=Music In Our Souls
TTITLE5=EMD (Eat My Dust)
TTITLE6=Thirteen Hours
TTITLE7=So Round So Firm
TTITLE8=Darmagi
TTITLE9=Too Far To Know
TTITLE10=Long Black Veil
TTITLE11=Blackberry Blossom
TTITLE12=Sinking Down
TTITLE13=Money Musk
EXTD=www.floydmusicschool.com\nwww.mikemitchellmusic.com\n
EXTT0=
EXTT1=
EXTT2=
EXTT3=
EXTT4=
EXTT5=
EXTT6=
EXTT7=
EXTT8=
EXTT9=
EXTT10=
EXTT11=
EXTT12=
EXTT13=
PLAYORDER=
